<svg width="197" height="64" viewBox="0 0 197 64" fill="none" xmlns="http://www.w3.org/2000/svg">
<rect x="0.432861" y="0.160156" width="195.956" height="63.7587" rx="25" fill="#C5F9C3"/>
<path d="M69.2903 28.751V30.1885C69.2903 31.8968 69.0767 33.4281 68.6497 34.7822C68.2226 36.1364 67.608 37.2874 66.8059 38.2354C66.0038 39.1833 65.0403 39.9072 63.9153 40.4072C62.8007 40.9072 61.5507 41.1572 60.1653 41.1572C58.8215 41.1572 57.5872 40.9072 56.4622 40.4072C55.3476 39.9072 54.3788 39.1833 53.5559 38.2354C52.7434 37.2874 52.1132 36.1364 51.6653 34.7822C51.2174 33.4281 50.9934 31.8968 50.9934 30.1885V28.751C50.9934 27.0426 51.2122 25.5166 51.6497 24.1729C52.0976 22.8187 52.7278 21.6676 53.5403 20.7197C54.3528 19.7614 55.3163 19.0322 56.4309 18.5322C57.5559 18.0322 58.7903 17.7822 60.134 17.7822C61.5194 17.7822 62.7694 18.0322 63.884 18.5322C65.009 19.0322 65.9726 19.7614 66.7747 20.7197C67.5872 21.6676 68.2069 22.8187 68.634 24.1729C69.0715 25.5166 69.2903 27.0426 69.2903 28.751ZM66.3059 30.1885V28.7197C66.3059 27.3656 66.1653 26.1676 65.884 25.126C65.6132 24.0843 65.2122 23.2093 64.6809 22.501C64.1497 21.7926 63.4986 21.2562 62.7278 20.8916C61.9674 20.527 61.1028 20.3447 60.134 20.3447C59.1965 20.3447 58.3476 20.527 57.5872 20.8916C56.8372 21.2562 56.1913 21.7926 55.6497 22.501C55.1184 23.2093 54.7069 24.0843 54.4153 25.126C54.1236 26.1676 53.9778 27.3656 53.9778 28.7197V30.1885C53.9778 31.5531 54.1236 32.7614 54.4153 33.8135C54.7069 34.8551 55.1236 35.7354 55.6653 36.4541C56.2174 37.1624 56.8684 37.6989 57.6184 38.0635C58.3788 38.4281 59.2278 38.6104 60.1653 38.6104C61.1444 38.6104 62.0142 38.4281 62.7747 38.0635C63.5351 37.6989 64.1757 37.1624 64.6965 36.4541C65.2278 35.7354 65.6288 34.8551 65.8997 33.8135C66.1705 32.7614 66.3059 31.5531 66.3059 30.1885ZM76.259 27.5479V40.8447H73.3684V23.9385H76.1028L76.259 27.5479ZM75.5715 31.751L74.3684 31.7041C74.3788 30.5479 74.5507 29.4801 74.884 28.501C75.2174 27.5114 75.6861 26.652 76.2903 25.9229C76.8944 25.1937 77.6132 24.6312 78.4465 24.2354C79.2903 23.8291 80.2226 23.626 81.2434 23.626C82.0767 23.626 82.8267 23.7406 83.4934 23.9697C84.1601 24.1885 84.7278 24.5426 85.1965 25.0322C85.6757 25.5218 86.0403 26.1572 86.2903 26.9385C86.5403 27.7093 86.6653 28.652 86.6653 29.7666V40.8447H83.759V29.7354C83.759 28.8499 83.6288 28.1416 83.3684 27.6104C83.108 27.0687 82.7278 26.6781 82.2278 26.4385C81.7278 26.1885 81.1132 26.0635 80.384 26.0635C79.6653 26.0635 79.009 26.2145 78.4153 26.5166C77.8319 26.8187 77.3267 27.2354 76.8997 27.7666C76.483 28.2979 76.1549 28.9072 75.9153 29.5947C75.6861 30.2718 75.5715 30.9906 75.5715 31.751ZM94.1965 16.8447V40.8447H91.2903V16.8447H94.1965ZM101.978 23.9385V40.8447H99.0715V23.9385H101.978ZM98.8528 19.4541C98.8528 18.9854 98.9934 18.5895 99.2747 18.2666C99.5663 17.9437 99.9934 17.7822 100.556 17.7822C101.108 17.7822 101.53 17.9437 101.822 18.2666C102.124 18.5895 102.275 18.9854 102.275 19.4541C102.275 19.902 102.124 20.2874 101.822 20.6104C101.53 20.9229 101.108 21.0791 100.556 21.0791C99.9934 21.0791 99.5663 20.9229 99.2747 20.6104C98.9934 20.2874 98.8528 19.902 98.8528 19.4541ZM109.509 27.5479V40.8447H106.618V23.9385H109.353L109.509 27.5479ZM108.822 31.751L107.618 31.7041C107.629 30.5479 107.801 29.4801 108.134 28.501C108.467 27.5114 108.936 26.652 109.54 25.9229C110.144 25.1937 110.863 24.6312 111.697 24.2354C112.54 23.8291 113.473 23.626 114.493 23.626C115.327 23.626 116.077 23.7406 116.743 23.9697C117.41 24.1885 117.978 24.5426 118.447 25.0322C118.926 25.5218 119.29 26.1572 119.54 26.9385C119.79 27.7093 119.915 28.652 119.915 29.7666V40.8447H117.009V29.7354C117.009 28.8499 116.879 28.1416 116.618 27.6104C116.358 27.0687 115.978 26.6781 115.478 26.4385C114.978 26.1885 114.363 26.0635 113.634 26.0635C112.915 26.0635 112.259 26.2145 111.665 26.5166C111.082 26.8187 110.577 27.2354 110.15 27.7666C109.733 28.2979 109.405 28.9072 109.165 29.5947C108.936 30.2718 108.822 30.9906 108.822 31.751ZM131.322 41.1572C130.144 41.1572 129.077 40.9593 128.118 40.5635C127.17 40.1572 126.353 39.5895 125.665 38.8604C124.988 38.1312 124.467 37.2666 124.103 36.2666C123.738 35.2666 123.556 34.1729 123.556 32.9854V32.3291C123.556 30.9541 123.759 29.7301 124.165 28.6572C124.572 27.5739 125.124 26.6572 125.822 25.9072C126.519 25.1572 127.311 24.5895 128.197 24.2041C129.082 23.8187 129.999 23.626 130.947 23.626C132.155 23.626 133.197 23.8343 134.072 24.251C134.957 24.6676 135.681 25.251 136.243 26.001C136.806 26.7406 137.223 27.6156 137.493 28.626C137.764 29.626 137.9 30.7197 137.9 31.9072V33.2041H125.275V30.8447H135.009V30.626C134.967 29.876 134.811 29.1468 134.54 28.4385C134.28 27.7301 133.863 27.1468 133.29 26.6885C132.717 26.2301 131.936 26.001 130.947 26.001C130.29 26.001 129.686 26.1416 129.134 26.4229C128.582 26.6937 128.108 27.0999 127.712 27.6416C127.316 28.1833 127.009 28.8447 126.79 29.626C126.572 30.4072 126.462 31.3083 126.462 32.3291V32.9854C126.462 33.7874 126.572 34.5426 126.79 35.251C127.019 35.9489 127.348 36.5635 127.775 37.0947C128.212 37.626 128.738 38.0426 129.353 38.3447C129.978 38.6468 130.686 38.7979 131.478 38.7979C132.499 38.7979 133.363 38.5895 134.072 38.1729C134.78 37.7562 135.4 37.1989 135.931 36.501L137.681 37.8916C137.316 38.4437 136.853 38.9697 136.29 39.4697C135.728 39.9697 135.035 40.376 134.212 40.6885C133.4 41.001 132.436 41.1572 131.322 41.1572Z" fill="#157B11"/>
</svg>
