<svg width="280" height="109" viewBox="0 0 280 109" fill="none" xmlns="http://www.w3.org/2000/svg">
<path d="M87.9492 10.5586V11.2324C87.9492 12.3132 87.8027 13.2832 87.5098 14.1426C87.2168 15.002 86.8034 15.7344 86.2695 16.3398C85.7357 16.9388 85.0977 17.3978 84.3555 17.7168C83.6198 18.0358 82.8027 18.1953 81.9043 18.1953C81.0124 18.1953 80.1953 18.0358 79.4531 17.7168C78.7174 17.3978 78.0794 16.9388 77.5391 16.3398C76.9987 15.7344 76.5788 15.002 76.2793 14.1426C75.9863 13.2832 75.8398 12.3132 75.8398 11.2324V10.5586C75.8398 9.47135 75.9863 8.5013 76.2793 7.64844C76.5723 6.78906 76.9857 6.05664 77.5195 5.45117C78.0599 4.8457 78.6979 4.38346 79.4336 4.06445C80.1758 3.74544 80.9928 3.58594 81.8848 3.58594C82.7832 3.58594 83.6003 3.74544 84.3359 4.06445C85.0781 4.38346 85.7161 4.8457 86.25 5.45117C86.7904 6.05664 87.207 6.78906 87.5 7.64844C87.7995 8.5013 87.9492 9.47135 87.9492 10.5586ZM84.9902 11.2324V10.5391C84.9902 9.78385 84.9219 9.11979 84.7852 8.54688C84.6484 7.97396 84.4466 7.49219 84.1797 7.10156C83.9128 6.71094 83.5872 6.41797 83.2031 6.22266C82.819 6.02083 82.3796 5.91992 81.8848 5.91992C81.39 5.91992 80.9505 6.02083 80.5664 6.22266C80.1888 6.41797 79.8665 6.71094 79.5996 7.10156C79.3392 7.49219 79.1406 7.97396 79.0039 8.54688C78.8672 9.11979 78.7988 9.78385 78.7988 10.5391V11.2324C78.7988 11.9811 78.8672 12.6452 79.0039 13.2246C79.1406 13.7975 79.3424 14.2826 79.6094 14.6797C79.8763 15.0703 80.2018 15.3665 80.5859 15.5684C80.9701 15.7702 81.4095 15.8711 81.9043 15.8711C82.3991 15.8711 82.8385 15.7702 83.2227 15.5684C83.6068 15.3665 83.929 15.0703 84.1895 14.6797C84.4499 14.2826 84.6484 13.7975 84.7852 13.2246C84.9219 12.6452 84.9902 11.9811 84.9902 11.2324ZM92.6953 9.73828V18H89.8828V7.43359H92.5293L92.6953 9.73828ZM95.8789 7.36523L95.8301 9.97266C95.6934 9.95312 95.5273 9.93685 95.332 9.92383C95.1432 9.9043 94.9707 9.89453 94.8145 9.89453C94.4173 9.89453 94.0723 9.94661 93.7793 10.0508C93.4928 10.1484 93.252 10.2949 93.0566 10.4902C92.8678 10.6855 92.7246 10.9232 92.627 11.2031C92.5358 11.4831 92.4837 11.8021 92.4707 12.1602L91.9043 11.9844C91.9043 11.3008 91.9727 10.6725 92.1094 10.0996C92.2461 9.52018 92.4447 9.01562 92.7051 8.58594C92.972 8.15625 93.2975 7.82422 93.6816 7.58984C94.0658 7.35547 94.5052 7.23828 95 7.23828C95.1562 7.23828 95.3158 7.2513 95.4785 7.27734C95.6413 7.29688 95.7747 7.32617 95.8789 7.36523ZM107.9 15.0801C107.9 14.8783 107.842 14.696 107.725 14.5332C107.607 14.3704 107.389 14.2207 107.07 14.084C106.758 13.9408 106.305 13.8105 105.713 13.6934C105.179 13.5762 104.681 13.4297 104.219 13.2539C103.763 13.0716 103.366 12.8535 103.027 12.5996C102.695 12.3457 102.435 12.0462 102.246 11.7012C102.057 11.3496 101.963 10.9492 101.963 10.5C101.963 10.0573 102.057 9.64062 102.246 9.25C102.441 8.85938 102.718 8.51432 103.076 8.21484C103.441 7.90885 103.883 7.67122 104.404 7.50195C104.932 7.32617 105.524 7.23828 106.182 7.23828C107.1 7.23828 107.887 7.38477 108.545 7.67773C109.209 7.9707 109.717 8.37435 110.068 8.88867C110.426 9.39648 110.605 9.97591 110.605 10.627H107.793C107.793 10.3535 107.734 10.1094 107.617 9.89453C107.507 9.67318 107.331 9.50065 107.09 9.37695C106.855 9.24674 106.549 9.18164 106.172 9.18164C105.859 9.18164 105.589 9.23698 105.361 9.34766C105.133 9.45182 104.958 9.59505 104.834 9.77734C104.717 9.95312 104.658 10.1484 104.658 10.3633C104.658 10.526 104.691 10.6725 104.756 10.8027C104.827 10.9264 104.941 11.0404 105.098 11.1445C105.254 11.2487 105.456 11.3464 105.703 11.4375C105.957 11.5221 106.27 11.6003 106.641 11.6719C107.402 11.8281 108.083 12.0332 108.682 12.2871C109.281 12.5345 109.756 12.873 110.107 13.3027C110.459 13.7259 110.635 14.2826 110.635 14.9727C110.635 15.4414 110.531 15.8711 110.322 16.2617C110.114 16.6523 109.814 16.9941 109.424 17.2871C109.033 17.5736 108.564 17.7982 108.018 17.9609C107.477 18.1172 106.868 18.1953 106.191 18.1953C105.208 18.1953 104.375 18.0195 103.691 17.668C103.014 17.3164 102.5 16.8704 102.148 16.3301C101.803 15.7832 101.631 15.2233 101.631 14.6504H104.297C104.31 15.0345 104.408 15.3438 104.59 15.5781C104.779 15.8125 105.016 15.9818 105.303 16.0859C105.596 16.1901 105.911 16.2422 106.25 16.2422C106.615 16.2422 106.917 16.1934 107.158 16.0957C107.399 15.9915 107.581 15.8548 107.705 15.6855C107.835 15.5098 107.9 15.3079 107.9 15.0801ZM115.43 7.43359V18H112.607V7.43359H115.43ZM112.432 4.67969C112.432 4.26953 112.575 3.93099 112.861 3.66406C113.148 3.39714 113.532 3.26367 114.014 3.26367C114.489 3.26367 114.87 3.39714 115.156 3.66406C115.449 3.93099 115.596 4.26953 115.596 4.67969C115.596 5.08984 115.449 5.42839 115.156 5.69531C114.87 5.96224 114.489 6.0957 114.014 6.0957C113.532 6.0957 113.148 5.96224 112.861 5.69531C112.575 5.42839 112.432 5.08984 112.432 4.67969ZM124.443 7.43359H126.992V17.6484C126.992 18.612 126.777 19.429 126.348 20.0996C125.924 20.7767 125.332 21.2878 124.57 21.6328C123.809 21.9844 122.923 22.1602 121.914 22.1602C121.471 22.1602 121.003 22.1016 120.508 21.9844C120.02 21.8672 119.551 21.6849 119.102 21.4375C118.659 21.1901 118.288 20.8776 117.988 20.5L119.229 18.8398C119.554 19.2174 119.932 19.5104 120.361 19.7188C120.791 19.9336 121.266 20.041 121.787 20.041C122.295 20.041 122.725 19.9466 123.076 19.7578C123.428 19.5755 123.698 19.3053 123.887 18.9473C124.076 18.5957 124.17 18.1693 124.17 17.668V9.875L124.443 7.43359ZM117.334 12.8438V12.6387C117.334 11.8314 117.432 11.099 117.627 10.4414C117.829 9.77734 118.112 9.20768 118.477 8.73242C118.848 8.25716 119.297 7.88932 119.824 7.62891C120.352 7.36849 120.947 7.23828 121.611 7.23828C122.314 7.23828 122.904 7.36849 123.379 7.62891C123.854 7.88932 124.245 8.26042 124.551 8.74219C124.857 9.21745 125.094 9.7806 125.264 10.4316C125.439 11.0762 125.576 11.7826 125.674 12.5508V13C125.576 13.7357 125.43 14.4193 125.234 15.0508C125.039 15.6823 124.782 16.2357 124.463 16.7109C124.144 17.1797 123.747 17.5443 123.271 17.8047C122.803 18.0651 122.243 18.1953 121.592 18.1953C120.941 18.1953 120.352 18.0618 119.824 17.7949C119.303 17.528 118.857 17.1536 118.486 16.6719C118.115 16.1901 117.829 15.6237 117.627 14.9727C117.432 14.3216 117.334 13.612 117.334 12.8438ZM120.146 12.6387V12.8438C120.146 13.2799 120.189 13.6868 120.273 14.0645C120.358 14.4421 120.488 14.7773 120.664 15.0703C120.846 15.3568 121.071 15.5814 121.338 15.7441C121.611 15.9004 121.934 15.9785 122.305 15.9785C122.819 15.9785 123.239 15.8711 123.564 15.6562C123.89 15.4349 124.134 15.1322 124.297 14.748C124.46 14.3639 124.554 13.9212 124.58 13.4199V12.1406C124.567 11.7305 124.512 11.3626 124.414 11.0371C124.316 10.7051 124.18 10.4219 124.004 10.1875C123.828 9.95312 123.6 9.77083 123.32 9.64062C123.04 9.51042 122.708 9.44531 122.324 9.44531C121.953 9.44531 121.631 9.52995 121.357 9.69922C121.09 9.86198 120.866 10.0866 120.684 10.373C120.508 10.6595 120.374 10.998 120.283 11.3887C120.192 11.7728 120.146 12.1895 120.146 12.6387ZM131.934 9.68945V18H129.121V7.43359H131.758L131.934 9.68945ZM131.523 12.3457H130.762C130.762 11.5645 130.863 10.8613 131.064 10.2363C131.266 9.60482 131.549 9.06771 131.914 8.625C132.279 8.17578 132.712 7.83398 133.213 7.59961C133.721 7.35872 134.287 7.23828 134.912 7.23828C135.407 7.23828 135.859 7.3099 136.27 7.45312C136.68 7.59635 137.031 7.82422 137.324 8.13672C137.624 8.44922 137.852 8.86263 138.008 9.37695C138.171 9.89128 138.252 10.5195 138.252 11.2617V18H135.42V11.252C135.42 10.7832 135.355 10.4186 135.225 10.1582C135.094 9.89779 134.902 9.71549 134.648 9.61133C134.401 9.50065 134.095 9.44531 133.73 9.44531C133.353 9.44531 133.024 9.52018 132.744 9.66992C132.471 9.81966 132.243 10.028 132.061 10.2949C131.885 10.5553 131.751 10.8613 131.66 11.2129C131.569 11.5645 131.523 11.9421 131.523 12.3457ZM148.34 7.43359V18H145.518V7.43359H148.34ZM145.342 4.67969C145.342 4.26953 145.485 3.93099 145.771 3.66406C146.058 3.39714 146.442 3.26367 146.924 3.26367C147.399 3.26367 147.78 3.39714 148.066 3.66406C148.359 3.93099 148.506 4.26953 148.506 4.67969C148.506 5.08984 148.359 5.42839 148.066 5.69531C147.78 5.96224 147.399 6.0957 146.924 6.0957C146.442 6.0957 146.058 5.96224 145.771 5.69531C145.485 5.42839 145.342 5.08984 145.342 4.67969ZM153.418 9.68945V18H150.605V7.43359H153.242L153.418 9.68945ZM153.008 12.3457H152.246C152.246 11.5645 152.347 10.8613 152.549 10.2363C152.751 9.60482 153.034 9.06771 153.398 8.625C153.763 8.17578 154.196 7.83398 154.697 7.59961C155.205 7.35872 155.771 7.23828 156.396 7.23828C156.891 7.23828 157.344 7.3099 157.754 7.45312C158.164 7.59635 158.516 7.82422 158.809 8.13672C159.108 8.44922 159.336 8.86263 159.492 9.37695C159.655 9.89128 159.736 10.5195 159.736 11.2617V18H156.904V11.252C156.904 10.7832 156.839 10.4186 156.709 10.1582C156.579 9.89779 156.387 9.71549 156.133 9.61133C155.885 9.50065 155.579 9.44531 155.215 9.44531C154.837 9.44531 154.508 9.52018 154.229 9.66992C153.955 9.81966 153.727 10.028 153.545 10.2949C153.369 10.5553 153.236 10.8613 153.145 11.2129C153.053 11.5645 153.008 11.9421 153.008 12.3457ZM169.873 15.2656L172.07 7.43359H173.857L173.281 10.5098L171.084 18H169.59L169.873 15.2656ZM168.76 7.43359L170.332 15.2559L170.479 18H168.721L166.045 7.43359H168.76ZM175.869 15.1289L177.402 7.43359H180.127L177.451 18H175.703L175.869 15.1289ZM174.102 7.43359L176.289 15.207L176.592 18H175.088L172.891 10.5195L172.334 7.43359H174.102ZM184.512 7.43359V18H181.689V7.43359H184.512ZM181.514 4.67969C181.514 4.26953 181.657 3.93099 181.943 3.66406C182.23 3.39714 182.614 3.26367 183.096 3.26367C183.571 3.26367 183.952 3.39714 184.238 3.66406C184.531 3.93099 184.678 4.26953 184.678 4.67969C184.678 5.08984 184.531 5.42839 184.238 5.69531C183.952 5.96224 183.571 6.0957 183.096 6.0957C182.614 6.0957 182.23 5.96224 181.943 5.69531C181.657 5.42839 181.514 5.08984 181.514 4.67969ZM192.012 7.43359V9.42578H185.859V7.43359H192.012ZM187.383 4.82617H190.195V14.8164C190.195 15.1224 190.234 15.3568 190.312 15.5195C190.397 15.6823 190.521 15.7962 190.684 15.8613C190.846 15.9199 191.051 15.9492 191.299 15.9492C191.475 15.9492 191.631 15.9427 191.768 15.9297C191.911 15.9102 192.031 15.8906 192.129 15.8711L192.139 17.9414C191.898 18.0195 191.637 18.0814 191.357 18.127C191.077 18.1725 190.768 18.1953 190.43 18.1953C189.811 18.1953 189.271 18.0944 188.809 17.8926C188.353 17.6842 188.001 17.3522 187.754 16.8965C187.507 16.4408 187.383 15.8418 187.383 15.0996V4.82617ZM196.357 3V18H193.545V3H196.357ZM195.957 12.3457H195.186C195.192 11.61 195.29 10.9329 195.479 10.3145C195.667 9.68945 195.938 9.14909 196.289 8.69336C196.641 8.23112 197.061 7.87305 197.549 7.61914C198.044 7.36523 198.59 7.23828 199.189 7.23828C199.71 7.23828 200.182 7.31315 200.605 7.46289C201.035 7.60612 201.403 7.84049 201.709 8.16602C202.021 8.48503 202.262 8.90495 202.432 9.42578C202.601 9.94661 202.686 10.5781 202.686 11.3203V18H199.854V11.3008C199.854 10.832 199.785 10.4642 199.648 10.1973C199.518 9.92383 199.326 9.73177 199.072 9.62109C198.825 9.50391 198.519 9.44531 198.154 9.44531C197.751 9.44531 197.406 9.52018 197.119 9.66992C196.839 9.81966 196.615 10.028 196.445 10.2949C196.276 10.5553 196.152 10.8613 196.074 11.2129C195.996 11.5645 195.957 11.9421 195.957 12.3457Z" fill="black"/>
<circle cx="32.5" cy="76.5" r="32.5" fill="#D9D9D9"/>
<path d="M46.1225 74.5641H33.4406V78.3396H42.4437C41.9874 83.6088 37.6033 85.863 33.4544 85.863C28.1576 85.863 23.5108 81.6865 23.5108 75.8088C23.5108 70.1386 27.9363 65.7545 33.4682 65.7545C37.7416 65.7545 40.2448 68.479 40.2448 68.479L42.8725 65.7407C42.8725 65.7407 39.498 61.979 33.3299 61.979C25.4746 61.979 19.4033 68.6173 19.4033 75.8088C19.4033 82.7928 25.115 89.6386 33.5374 89.6386C40.9363 89.6386 46.3299 84.563 46.3299 77.0673C46.3299 75.4769 46.1225 74.5641 46.1225 74.5641Z" fill="black"/>
<circle cx="139.734" cy="76.5" r="32.5" fill="#D9D9D9"/>
<g clip-path="url(#clip0_1770_120)">
<path d="M125.213 64.0618V87.6024L143.121 91.3574V60.5957L125.213 64.0618ZM134.235 81.3069C128.542 80.9397 129.129 70.6781 134.368 70.5966C139.981 70.9676 139.43 81.225 134.235 81.3069ZM134.317 72.6057C131.318 72.814 131.452 79.2391 134.271 79.2907C137.257 79.0983 137.082 72.6557 134.317 72.6057ZM146.172 76.6981C146.443 76.8968 146.769 76.6981 146.769 76.6981C146.444 76.8968 155.638 70.7895 155.638 70.7895V81.8487C155.638 83.0526 154.868 83.5575 154.001 83.5575H144.252L144.253 75.3798L146.172 76.6981ZM144.253 67.1178V73.1349L146.356 74.459C146.412 74.4752 146.532 74.4763 146.587 74.459L155.637 68.3574C155.637 67.6354 154.964 67.1178 154.583 67.1178H144.253Z" fill="black"/>
</g>
<circle cx="246.968" cy="76.5" r="32.5" fill="#D9D9D9"/>
<path d="M256.39 90.1223C254.696 91.7646 252.846 91.5053 251.065 90.7274C249.181 89.9322 247.452 89.8976 245.464 90.7274C242.975 91.7992 241.661 91.488 240.175 90.1223C231.738 81.4269 232.983 68.1848 242.56 67.7008C244.894 67.8218 246.519 68.9801 247.885 69.0838C249.925 68.6689 251.878 67.4761 254.056 67.6316C256.667 67.8391 258.637 68.8763 259.934 70.7434C254.54 73.9761 255.819 81.0811 260.764 83.0692C259.778 85.6622 258.499 88.238 256.373 90.1396L256.39 90.1223ZM247.712 67.5971C247.452 63.742 250.581 60.5612 254.177 60.25C254.679 64.7101 250.132 68.0293 247.712 67.5971Z" fill="black"/>
<defs>
<clipPath id="clip0_1770_120">
<rect width="30.4255" height="31.6426" fill="white" transform="translate(125.213 60.5957)"/>
</clipPath>
</defs>
</svg>
