<svg width="128" height="19" viewBox="0 0 128 19" fill="none" xmlns="http://www.w3.org/2000/svg">
<path d="M0.702 7.52C0.702 6.74 0.834 5.978 1.098 5.234C1.374 4.478 1.77 3.794 2.286 3.182C2.814 2.558 3.456 2.066 4.212 1.706C4.968 1.334 5.826 1.148 6.786 1.148C7.926 1.148 8.904 1.412 9.72 1.94C10.536 2.456 11.142 3.122 11.538 3.938L10.26 4.766C10.008 4.226 9.684 3.8 9.288 3.488C8.904 3.164 8.484 2.936 8.028 2.804C7.584 2.672 7.146 2.606 6.714 2.606C6.006 2.606 5.376 2.75 4.824 3.038C4.284 3.326 3.828 3.71 3.456 4.19C3.084 4.67 2.802 5.21 2.61 5.81C2.43 6.398 2.34 6.992 2.34 7.592C2.34 8.252 2.448 8.888 2.664 9.5C2.892 10.112 3.204 10.652 3.6 11.12C3.996 11.588 4.464 11.96 5.004 12.236C5.544 12.512 6.132 12.65 6.768 12.65C7.212 12.65 7.668 12.572 8.136 12.416C8.604 12.26 9.042 12.02 9.45 11.696C9.858 11.36 10.182 10.928 10.422 10.4L11.772 11.138C11.508 11.774 11.1 12.314 10.548 12.758C9.996 13.202 9.378 13.538 8.694 13.766C8.022 13.994 7.356 14.108 6.696 14.108C5.82 14.108 5.016 13.922 4.284 13.55C3.552 13.166 2.916 12.662 2.376 12.038C1.848 11.402 1.434 10.694 1.134 9.914C0.846 9.122 0.702 8.324 0.702 7.52ZM17.6515 14.18C16.9435 14.18 16.3015 14.054 15.7255 13.802C15.1495 13.538 14.6515 13.184 14.2315 12.74C13.8115 12.284 13.4875 11.762 13.2595 11.174C13.0315 10.586 12.9175 9.968 12.9175 9.32C12.9175 8.66 13.0315 8.036 13.2595 7.448C13.4875 6.86 13.8115 6.344 14.2315 5.9C14.6515 5.444 15.1495 5.09 15.7255 4.838C16.3135 4.574 16.9555 4.442 17.6515 4.442C18.3595 4.442 19.0015 4.574 19.5775 4.838C20.1535 5.09 20.6515 5.444 21.0715 5.9C21.5035 6.344 21.8335 6.86 22.0615 7.448C22.2895 8.036 22.4035 8.66 22.4035 9.32C22.4035 9.968 22.2895 10.586 22.0615 11.174C21.8335 11.762 21.5095 12.284 21.0895 12.74C20.6695 13.184 20.1655 13.538 19.5775 13.802C19.0015 14.054 18.3595 14.18 17.6515 14.18ZM14.5375 9.338C14.5375 9.986 14.6755 10.574 14.9515 11.102C15.2395 11.63 15.6175 12.05 16.0855 12.362C16.5535 12.662 17.0755 12.812 17.6515 12.812C18.2275 12.812 18.7495 12.656 19.2175 12.344C19.6975 12.032 20.0755 11.612 20.3515 11.084C20.6395 10.544 20.7835 9.95 20.7835 9.302C20.7835 8.654 20.6395 8.066 20.3515 7.538C20.0755 7.01 19.6975 6.59 19.2175 6.278C18.7495 5.966 18.2275 5.81 17.6515 5.81C17.0755 5.81 16.5535 5.972 16.0855 6.296C15.6175 6.608 15.2395 7.028 14.9515 7.556C14.6755 8.084 14.5375 8.678 14.5375 9.338ZM27.5449 14.18C26.7649 14.18 26.0329 14.054 25.3489 13.802C24.6649 13.538 24.0769 13.148 23.5849 12.632L24.1969 11.516C24.7369 12.02 25.2769 12.38 25.8169 12.596C26.3569 12.812 26.9089 12.92 27.4729 12.92C28.1209 12.92 28.6489 12.8 29.0569 12.56C29.4649 12.308 29.6689 11.942 29.6689 11.462C29.6689 11.114 29.5609 10.856 29.3449 10.688C29.1409 10.52 28.8469 10.382 28.4629 10.274C28.0789 10.154 27.6229 10.022 27.0949 9.878C26.4469 9.686 25.9009 9.482 25.4569 9.266C25.0129 9.05 24.6769 8.78 24.4489 8.456C24.2209 8.132 24.1069 7.724 24.1069 7.232C24.1069 6.632 24.2629 6.128 24.5749 5.72C24.8869 5.3 25.3129 4.982 25.8529 4.766C26.4049 4.55 27.0289 4.442 27.7249 4.442C28.4209 4.442 29.0509 4.55 29.6149 4.766C30.1789 4.982 30.6649 5.3 31.0729 5.72L30.3529 6.818C29.9809 6.434 29.5729 6.152 29.1289 5.972C28.6849 5.78 28.1869 5.684 27.6349 5.684C27.3109 5.684 26.9929 5.726 26.6809 5.81C26.3689 5.882 26.1109 6.02 25.9069 6.224C25.7029 6.416 25.6009 6.692 25.6009 7.052C25.6009 7.352 25.6789 7.592 25.8349 7.772C26.0029 7.94 26.2429 8.084 26.5549 8.204C26.8789 8.324 27.2689 8.456 27.7249 8.6C28.4329 8.804 29.0449 9.008 29.5609 9.212C30.0889 9.416 30.4969 9.68 30.7849 10.004C31.0729 10.328 31.2169 10.778 31.2169 11.354C31.2169 12.242 30.8809 12.938 30.2089 13.442C29.5369 13.934 28.6489 14.18 27.5449 14.18ZM37.972 13.532C37.84 13.592 37.66 13.67 37.432 13.766C37.204 13.862 36.94 13.946 36.64 14.018C36.34 14.09 36.022 14.126 35.686 14.126C35.302 14.126 34.948 14.06 34.624 13.928C34.3 13.784 34.042 13.568 33.85 13.28C33.658 12.98 33.562 12.608 33.562 12.164V5.846H32.284V4.604H33.562V1.472H35.146V4.604H37.252V5.846H35.146V11.678C35.17 12.014 35.284 12.266 35.488 12.434C35.692 12.59 35.932 12.668 36.208 12.668C36.52 12.668 36.808 12.614 37.072 12.506C37.336 12.398 37.51 12.32 37.594 12.272L37.972 13.532ZM39.3501 10.238V4.604H40.9341V9.932C40.9341 10.892 41.1021 11.612 41.4381 12.092C41.7741 12.572 42.2721 12.812 42.9321 12.812C43.3641 12.812 43.7781 12.722 44.1741 12.542C44.5821 12.35 44.9481 12.08 45.2721 11.732C45.5961 11.384 45.8481 10.97 46.0281 10.49V4.604H47.6121V12.2C47.6121 12.392 47.6481 12.536 47.7201 12.632C47.8041 12.716 47.9361 12.764 48.1161 12.776V14C47.9361 14.024 47.7921 14.036 47.6841 14.036C47.5881 14.048 47.4921 14.054 47.3961 14.054C47.0961 14.054 46.8381 13.964 46.6221 13.784C46.4061 13.592 46.2921 13.358 46.2801 13.082L46.2441 11.984C45.8361 12.68 45.2841 13.22 44.5881 13.604C43.9041 13.988 43.1541 14.18 42.3381 14.18C41.3541 14.18 40.6101 13.85 40.1061 13.19C39.6021 12.518 39.3501 11.534 39.3501 10.238ZM64.4167 14H62.8327V8.744C62.8327 7.76 62.6707 7.034 62.3467 6.566C62.0347 6.098 61.5667 5.864 60.9427 5.864C60.3067 5.864 59.7307 6.098 59.2147 6.566C58.6987 7.022 58.3327 7.616 58.1167 8.348V14H56.5327V8.744C56.5327 7.748 56.3767 7.022 56.0647 6.566C55.7527 6.098 55.2847 5.864 54.6607 5.864C54.0367 5.864 53.4607 6.092 52.9327 6.548C52.4167 6.992 52.0507 7.586 51.8347 8.33V14H50.2507V4.604H51.6907V6.62C52.0747 5.924 52.5727 5.39 53.1847 5.018C53.7967 4.634 54.4867 4.442 55.2547 4.442C56.0347 4.442 56.6587 4.658 57.1267 5.09C57.5947 5.51 57.8827 6.056 57.9907 6.728C58.4107 5.984 58.9207 5.42 59.5207 5.036C60.1207 4.64 60.8047 4.442 61.5727 4.442C62.1127 4.442 62.5627 4.544 62.9227 4.748C63.2947 4.94 63.5887 5.216 63.8047 5.576C64.0207 5.924 64.1767 6.338 64.2727 6.818C64.3687 7.298 64.4167 7.82 64.4167 8.384V14ZM71.0376 14.18C70.3296 14.18 69.6816 14.054 69.0936 13.802C68.5176 13.538 68.0136 13.184 67.5816 12.74C67.1616 12.284 66.8316 11.762 66.5916 11.174C66.3636 10.586 66.2496 9.962 66.2496 9.302C66.2496 8.414 66.4536 7.604 66.8616 6.872C67.2696 6.14 67.8336 5.552 68.5536 5.108C69.2856 4.664 70.1196 4.442 71.0556 4.442C72.0036 4.442 72.8256 4.67 73.5216 5.126C74.2296 5.57 74.7756 6.158 75.1596 6.89C75.5556 7.61 75.7536 8.39 75.7536 9.23C75.7536 9.35 75.7476 9.47 75.7356 9.59C75.7356 9.698 75.7296 9.782 75.7176 9.842H67.9236C67.9716 10.454 68.1396 11 68.4276 11.48C68.7276 11.948 69.1116 12.32 69.5796 12.596C70.0476 12.86 70.5516 12.992 71.0916 12.992C71.6676 12.992 72.2076 12.848 72.7116 12.56C73.2276 12.272 73.5816 11.894 73.7736 11.426L75.1416 11.804C74.9376 12.26 74.6316 12.668 74.2236 13.028C73.8276 13.388 73.3536 13.67 72.8016 13.874C72.2616 14.078 71.6736 14.18 71.0376 14.18ZM67.8696 8.744H74.2776C74.2296 8.132 74.0556 7.592 73.7556 7.124C73.4556 6.656 73.0716 6.29 72.6036 6.026C72.1356 5.762 71.6196 5.63 71.0556 5.63C70.5036 5.63 69.9936 5.762 69.5256 6.026C69.0576 6.29 68.6736 6.656 68.3736 7.124C68.0856 7.592 67.9176 8.132 67.8696 8.744ZM82.4823 5.99C81.6903 6.002 80.9883 6.206 80.3763 6.602C79.7763 6.986 79.3503 7.52 79.0983 8.204V14H77.5143V4.604H78.9903V6.782C79.3143 6.134 79.7403 5.612 80.2683 5.216C80.8083 4.808 81.3723 4.58 81.9603 4.532C82.0803 4.532 82.1823 4.532 82.2663 4.532C82.3503 4.532 82.4223 4.538 82.4823 4.55V5.99ZM88.2203 0.86H89.8043V11.57C89.8043 12.086 89.8763 12.404 90.0203 12.524C90.1643 12.644 90.3383 12.704 90.5423 12.704C90.7943 12.704 91.0343 12.68 91.2623 12.632C91.4903 12.572 91.6823 12.512 91.8383 12.452L92.0903 13.748C91.8263 13.856 91.5143 13.946 91.1543 14.018C90.7943 14.09 90.4763 14.126 90.2003 14.126C89.5883 14.126 89.1023 13.952 88.7423 13.604C88.3943 13.256 88.2203 12.77 88.2203 12.146V0.86ZM97.4386 14.18C96.7306 14.18 96.0886 14.054 95.5126 13.802C94.9366 13.538 94.4386 13.184 94.0186 12.74C93.5986 12.284 93.2746 11.762 93.0466 11.174C92.8186 10.586 92.7046 9.968 92.7046 9.32C92.7046 8.66 92.8186 8.036 93.0466 7.448C93.2746 6.86 93.5986 6.344 94.0186 5.9C94.4386 5.444 94.9366 5.09 95.5126 4.838C96.1006 4.574 96.7426 4.442 97.4386 4.442C98.1466 4.442 98.7886 4.574 99.3646 4.838C99.9406 5.09 100.439 5.444 100.859 5.9C101.291 6.344 101.621 6.86 101.849 7.448C102.077 8.036 102.191 8.66 102.191 9.32C102.191 9.968 102.077 10.586 101.849 11.174C101.621 11.762 101.297 12.284 100.877 12.74C100.457 13.184 99.9526 13.538 99.3646 13.802C98.7886 14.054 98.1466 14.18 97.4386 14.18ZM94.3246 9.338C94.3246 9.986 94.4626 10.574 94.7386 11.102C95.0266 11.63 95.4046 12.05 95.8726 12.362C96.3406 12.662 96.8626 12.812 97.4386 12.812C98.0146 12.812 98.5366 12.656 99.0046 12.344C99.4846 12.032 99.8626 11.612 100.139 11.084C100.427 10.544 100.571 9.95 100.571 9.302C100.571 8.654 100.427 8.066 100.139 7.538C99.8626 7.01 99.4846 6.59 99.0046 6.278C98.5366 5.966 98.0146 5.81 97.4386 5.81C96.8626 5.81 96.3406 5.972 95.8726 6.296C95.4046 6.608 95.0266 7.028 94.7386 7.556C94.4626 8.084 94.3246 8.678 94.3246 9.338ZM107.854 14.108C107.218 14.108 106.63 13.982 106.09 13.73C105.562 13.466 105.106 13.112 104.722 12.668C104.338 12.212 104.038 11.696 103.822 11.12C103.618 10.544 103.516 9.944 103.516 9.32C103.516 8.66 103.618 8.036 103.822 7.448C104.038 6.86 104.338 6.344 104.722 5.9C105.118 5.444 105.58 5.09 106.108 4.838C106.636 4.574 107.224 4.442 107.872 4.442C108.652 4.442 109.33 4.634 109.906 5.018C110.494 5.402 110.986 5.888 111.382 6.476V4.604H112.786V13.892C112.786 14.78 112.57 15.53 112.138 16.142C111.718 16.754 111.142 17.216 110.41 17.528C109.69 17.852 108.886 18.014 107.998 18.014C106.942 18.014 106.078 17.828 105.406 17.456C104.734 17.084 104.176 16.58 103.732 15.944L104.65 15.134C105.022 15.686 105.502 16.1 106.09 16.376C106.69 16.652 107.326 16.79 107.998 16.79C108.574 16.79 109.102 16.682 109.582 16.466C110.074 16.262 110.464 15.944 110.752 15.512C111.052 15.08 111.202 14.54 111.202 13.892V12.236C110.854 12.812 110.374 13.268 109.762 13.604C109.162 13.94 108.526 14.108 107.854 14.108ZM108.34 12.812C108.676 12.812 109 12.752 109.312 12.632C109.624 12.512 109.912 12.356 110.176 12.164C110.44 11.96 110.662 11.732 110.842 11.48C111.022 11.228 111.142 10.97 111.202 10.706V8.006C111.034 7.574 110.794 7.196 110.482 6.872C110.17 6.536 109.816 6.278 109.42 6.098C109.024 5.906 108.616 5.81 108.196 5.81C107.716 5.81 107.284 5.912 106.9 6.116C106.528 6.32 106.21 6.596 105.946 6.944C105.682 7.28 105.478 7.658 105.334 8.078C105.19 8.498 105.118 8.924 105.118 9.356C105.118 9.824 105.202 10.268 105.37 10.688C105.538 11.096 105.766 11.462 106.054 11.786C106.342 12.11 106.684 12.362 107.08 12.542C107.476 12.722 107.896 12.812 108.34 12.812ZM115.342 14V4.604H116.926V14H115.342ZM115.342 2.84V0.86H116.926V2.84H115.342ZM127.645 14H126.061V8.744C126.061 7.748 125.905 7.022 125.593 6.566C125.293 6.098 124.831 5.864 124.207 5.864C123.775 5.864 123.343 5.972 122.911 6.188C122.491 6.404 122.113 6.698 121.777 7.07C121.453 7.43 121.219 7.85 121.075 8.33V14H119.491V4.604H120.931V6.62C121.183 6.176 121.507 5.792 121.903 5.468C122.299 5.144 122.749 4.892 123.253 4.712C123.757 4.532 124.285 4.442 124.837 4.442C125.377 4.442 125.827 4.544 126.187 4.748C126.559 4.94 126.847 5.216 127.051 5.576C127.267 5.924 127.417 6.338 127.501 6.818C127.597 7.298 127.645 7.82 127.645 8.384V14Z" fill="#252525"/>
</svg>
