<svg width="60" height="84" viewBox="0 0 60 84" fill="none" xmlns="http://www.w3.org/2000/svg">
<path d="M21.9418 79V70.328L18.1978 77H17.3178L13.5578 70.328V79H12.1178V67.64H13.6378L17.7498 75.016L21.8778 67.64H23.3818V79H21.9418ZM29.3856 79.16C28.7562 79.16 28.1856 79.048 27.6736 78.824C27.1616 78.5893 26.7189 78.2747 26.3456 77.88C25.9722 77.4747 25.6842 77.0107 25.4816 76.488C25.2789 75.9653 25.1776 75.416 25.1776 74.84C25.1776 74.2533 25.2789 73.6987 25.4816 73.176C25.6842 72.6533 25.9722 72.1947 26.3456 71.8C26.7189 71.3947 27.1616 71.08 27.6736 70.856C28.1962 70.6213 28.7669 70.504 29.3856 70.504C30.0149 70.504 30.5856 70.6213 31.0976 70.856C31.6096 71.08 32.0522 71.3947 32.4256 71.8C32.8096 72.1947 33.1029 72.6533 33.3056 73.176C33.5082 73.6987 33.6096 74.2533 33.6096 74.84C33.6096 75.416 33.5082 75.9653 33.3056 76.488C33.1029 77.0107 32.8149 77.4747 32.4416 77.88C32.0682 78.2747 31.6202 78.5893 31.0976 78.824C30.5856 79.048 30.0149 79.16 29.3856 79.16ZM26.6176 74.856C26.6176 75.432 26.7402 75.9547 26.9856 76.424C27.2416 76.8933 27.5776 77.2667 27.9936 77.544C28.4096 77.8107 28.8736 77.944 29.3856 77.944C29.8976 77.944 30.3616 77.8053 30.7776 77.528C31.2042 77.2507 31.5402 76.8773 31.7856 76.408C32.0416 75.928 32.1696 75.4 32.1696 74.824C32.1696 74.248 32.0416 73.7253 31.7856 73.256C31.5402 72.7867 31.2042 72.4133 30.7776 72.136C30.3616 71.8587 29.8976 71.72 29.3856 71.72C28.8736 71.72 28.4096 71.864 27.9936 72.152C27.5776 72.4293 27.2416 72.8027 26.9856 73.272C26.7402 73.7413 26.6176 74.2693 26.6176 74.856ZM39.7317 71.88C39.0277 71.8907 38.4037 72.072 37.8597 72.424C37.3264 72.7653 36.9477 73.24 36.7237 73.848V79H35.3157V70.648H36.6277V72.584C36.9157 72.008 37.2944 71.544 37.7637 71.192C38.2437 70.8293 38.745 70.6267 39.2677 70.584C39.3744 70.584 39.465 70.584 39.5397 70.584C39.6144 70.584 39.6784 70.5893 39.7317 70.6V71.88ZM44.6211 79.16C43.9917 79.16 43.4157 79.048 42.8931 78.824C42.3811 78.5893 41.9331 78.2747 41.5491 77.88C41.1757 77.4747 40.8824 77.0107 40.6691 76.488C40.4664 75.9653 40.3651 75.4107 40.3651 74.824C40.3651 74.0347 40.5464 73.3147 40.9091 72.664C41.2717 72.0133 41.7731 71.4907 42.4131 71.096C43.0637 70.7013 43.8051 70.504 44.6371 70.504C45.4797 70.504 46.2104 70.7067 46.8291 71.112C47.4584 71.5067 47.9437 72.0293 48.2851 72.68C48.6371 73.32 48.8131 74.0133 48.8131 74.76C48.8131 74.8667 48.8077 74.9733 48.7971 75.08C48.7971 75.176 48.7917 75.2507 48.7811 75.304H41.8531C41.8957 75.848 42.0451 76.3333 42.3011 76.76C42.5677 77.176 42.9091 77.5067 43.3251 77.752C43.7411 77.9867 44.1891 78.104 44.6691 78.104C45.1811 78.104 45.6611 77.976 46.1091 77.72C46.5677 77.464 46.8824 77.128 47.0531 76.712L48.2691 77.048C48.0877 77.4533 47.8157 77.816 47.4531 78.136C47.1011 78.456 46.6797 78.7067 46.1891 78.888C45.7091 79.0693 45.1864 79.16 44.6211 79.16ZM41.8051 74.328H47.5011C47.4584 73.784 47.3037 73.304 47.0371 72.888C46.7704 72.472 46.4291 72.1467 46.0131 71.912C45.5971 71.6773 45.1384 71.56 44.6371 71.56C44.1464 71.56 43.6931 71.6773 43.2771 71.912C42.8611 72.1467 42.5197 72.472 42.2531 72.888C41.9971 73.304 41.8477 73.784 41.8051 74.328Z" fill="black"/>
<path d="M10.7578 81H49.2451V81.8H10.7578V81Z" fill="black"/>
<circle cx="30" cy="30" r="28" fill="#D9D9D9" fill-opacity="0.78"/>
<circle cx="30" cy="30" r="28" stroke="url(#paint0_radial_71_72)" stroke-opacity="0.44" stroke-width="3.5"/>
<circle cx="30" cy="30" r="28" stroke="url(#paint1_linear_71_72)" stroke-opacity="0.2" stroke-width="3.5"/>
<circle cx="30" cy="30" r="28" stroke="url(#paint2_linear_71_72)" stroke-opacity="0.2" stroke-width="3.5"/>
<circle cx="30" cy="30" r="28" stroke="url(#paint3_linear_71_72)" stroke-opacity="0.2" stroke-width="3.5"/>
<path d="M25 44.0035C25.0005 43.4726 25.2143 42.9637 25.5945 42.5885L35.9605 32.3476C36.2742 32.0377 36.5231 31.6698 36.6929 31.2648C36.8627 30.8599 36.9501 30.4259 36.9501 29.9876C36.9501 29.5493 36.8627 29.1152 36.6929 28.7103C36.5231 28.3054 36.2742 27.9375 35.9605 27.6276L25.608 17.3933C25.2388 17.0156 25.0346 16.5099 25.0392 15.9849C25.0438 15.4599 25.2569 14.9577 25.6327 14.5865C26.0085 14.2152 26.5168 14.0046 27.0482 14.0001C27.5796 13.9955 28.0915 14.1973 28.4738 14.5621L38.8262 24.7883C40.2182 26.1663 41 28.0335 41 29.9802C41 31.927 40.2182 33.7942 38.8262 35.1721L28.4603 45.4131C28.1772 45.6929 27.8166 45.8836 27.424 45.9611C27.0314 46.0387 26.6243 45.9996 26.2541 45.8488C25.8839 45.698 25.5673 45.4423 25.3441 45.1139C25.1209 44.7854 25.0012 44.3991 25 44.0035Z" fill="#252525"/>
<defs>
<radialGradient id="paint0_radial_71_72" cx="0" cy="0" r="1" gradientUnits="userSpaceOnUse" gradientTransform="translate(58 25) rotate(169.875) scale(28.4429)">
<stop stop-color="#258ED9" stop-opacity="0.59"/>
<stop offset="1" stop-color="#258ED9" stop-opacity="0"/>
</radialGradient>
<linearGradient id="paint1_linear_71_72" x1="41.5" y1="58" x2="34.5" y2="28" gradientUnits="userSpaceOnUse">
<stop stop-color="#EB1B1B"/>
<stop offset="1" stop-color="#EB1B1B" stop-opacity="0"/>
</linearGradient>
<linearGradient id="paint2_linear_71_72" x1="24.5" y1="6" x2="30" y2="26" gradientUnits="userSpaceOnUse">
<stop stop-color="#D422F1"/>
<stop offset="1" stop-color="#CE2EE8" stop-opacity="0"/>
</linearGradient>
<linearGradient id="paint3_linear_71_72" x1="3.5" y1="39" x2="35.5" y2="30" gradientUnits="userSpaceOnUse">
<stop stop-color="#2EF766"/>
<stop offset="1" stop-color="#36FF6E" stop-opacity="0"/>
</linearGradient>
</defs>
</svg>
