<svg width="76" height="96" viewBox="0 0 76 96" fill="none" xmlns="http://www.w3.org/2000/svg">
<g filter="url(#filter0_d_2329_431)">
<path d="M10.8 6.53824V77.9358L31.6284 61.9106C33.4369 60.5195 35.684 59.7617 38 59.7617C40.316 59.7617 42.5631 60.5195 44.3716 61.9106L65.2 77.9292V6.53824H10.8ZM7.4 0H68.6C69.5017 0 70.3665 0.344424 71.0042 0.957502C71.6418 1.57058 72 2.40209 72 3.26912V84.7355C71.9991 85.3507 71.8177 85.9531 71.4766 86.4736C71.1356 86.994 70.6487 87.4114 70.072 87.6777C69.4953 87.9441 68.8522 88.0485 68.2165 87.9791C67.5808 87.9097 66.9783 87.6693 66.4784 87.2854L40.1216 67.0169C39.5191 66.5543 38.771 66.3024 38 66.3024C37.229 66.3024 36.4809 66.5543 35.8784 67.0169L9.5216 87.2854C9.02166 87.6693 8.41923 87.9097 7.78354 87.9791C7.14784 88.0485 6.50468 87.9441 5.92797 87.6777C5.35127 87.4114 4.86441 86.994 4.52336 86.4736C4.18232 85.9531 4.00091 85.3507 4 84.7355V3.26912C4 2.40209 4.35821 1.57058 4.99584 0.957502C5.63346 0.344424 6.49826 0 7.4 0Z" fill="#258ED9"/>
<path d="M10.8 6.03824H10.3V6.53824V77.9358V78.9513L11.1049 78.332L31.9332 62.3069C31.9333 62.3069 31.9333 62.3069 31.9333 62.3068C33.653 60.9841 35.7925 60.2617 38 60.2617C40.2075 60.2617 42.347 60.9842 44.0668 62.3069L44.3716 61.9106L44.0668 62.3069L64.8952 78.3256L65.7 78.9445V77.9292V6.53824V6.03824H65.2H10.8ZM40.4264 66.6206L40.4261 66.6203C39.7349 66.0896 38.8793 65.8024 38 65.8024C37.1207 65.8024 36.2651 66.0896 35.5739 66.6203L35.5736 66.6206L9.2171 86.8889C9.21702 86.8889 9.21694 86.889 9.21686 86.889C8.79072 87.2162 8.27523 87.4225 7.72928 87.4821C7.18319 87.5417 6.63132 87.4518 6.1376 87.2238C5.64402 86.9958 5.23019 86.64 4.94157 86.1995C4.65316 85.7594 4.50083 85.2519 4.5 84.7351V3.26912C4.5 2.54118 4.80057 1.83888 5.34239 1.31792C5.88487 0.796323 6.62468 0.5 7.4 0.5H68.6C69.3753 0.5 70.1151 0.796324 70.6576 1.31793C71.1994 1.83888 71.5 2.54117 71.5 3.26912V84.7348C71.4992 85.2516 71.3469 85.7593 71.0584 86.1995C70.7698 86.64 70.356 86.9958 69.8624 87.2238C69.3687 87.4518 68.8168 87.5417 68.2707 87.4821C67.7247 87.4225 67.2091 87.2161 66.7829 86.8889L40.4264 66.6206Z" stroke="#258ED9" stroke-opacity="0.59"/>
</g>
<defs>
<filter id="filter0_d_2329_431" x="0" y="0" width="76" height="96" filterUnits="userSpaceOnUse" color-interpolation-filters="sRGB">
<feFlood flood-opacity="0" result="BackgroundImageFix"/>
<feColorMatrix in="SourceAlpha" type="matrix" values="0 0 0 0 0 0 0 0 0 0 0 0 0 0 0 0 0 0 127 0" result="hardAlpha"/>
<feOffset dy="4"/>
<feGaussianBlur stdDeviation="2"/>
<feComposite in2="hardAlpha" operator="out"/>
<feColorMatrix type="matrix" values="0 0 0 0 0 0 0 0 0 0 0 0 0 0 0 0 0 0 0.25 0"/>
<feBlend mode="normal" in2="BackgroundImageFix" result="effect1_dropShadow_2329_431"/>
<feBlend mode="normal" in="SourceGraphic" in2="effect1_dropShadow_2329_431" result="shape"/>
</filter>
</defs>
</svg>
