<svg width="104" height="29" viewBox="0 0 104 29" fill="none" xmlns="http://www.w3.org/2000/svg">
<rect width="104" height="29" rx="14.5" fill="#252525"/>
<path d="M42.7293 11.8182C42.6654 11.2784 42.4062 10.8594 41.9516 10.5611C41.4971 10.2628 40.9395 10.1136 40.279 10.1136C39.7961 10.1136 39.3735 10.1918 39.0113 10.348C38.6526 10.5043 38.3721 10.7191 38.1697 10.9925C37.9708 11.266 37.8714 11.5767 37.8714 11.9247C37.8714 12.2159 37.9406 12.4663 38.0791 12.6758C38.2211 12.8817 38.4023 13.054 38.6224 13.1925C38.8426 13.3274 39.0734 13.4393 39.3149 13.5281C39.5564 13.6133 39.7783 13.6825 39.9807 13.7358L41.0887 14.0341C41.3728 14.1087 41.6888 14.2116 42.0368 14.343C42.3884 14.4744 42.724 14.6538 43.0436 14.881C43.3667 15.1048 43.6331 15.3924 43.8426 15.744C44.0521 16.0955 44.1569 16.527 44.1569 17.0384C44.1569 17.6278 44.0024 18.1605 43.6934 18.6364C43.3881 19.1122 42.9406 19.4904 42.3511 19.771C41.7652 20.0515 41.0532 20.1918 40.2151 20.1918C39.4339 20.1918 38.7574 20.0657 38.1856 19.8136C37.6175 19.5614 37.17 19.2099 36.8433 18.7589C36.5202 18.3079 36.3373 17.7841 36.2947 17.1875H37.6583C37.6938 17.5994 37.8323 17.9403 38.0738 18.2102C38.3188 18.4766 38.6278 18.6754 39.0006 18.8068C39.377 18.9347 39.7819 18.9986 40.2151 18.9986C40.7194 18.9986 41.1721 18.9169 41.5734 18.7536C41.9747 18.5866 42.2925 18.3558 42.5269 18.0611C42.7613 17.7628 42.8785 17.4148 42.8785 17.017C42.8785 16.6548 42.7773 16.3601 42.5748 16.1328C42.3724 15.9055 42.1061 15.7209 41.7758 15.5788C41.4456 15.4368 41.0887 15.3125 40.7052 15.206L39.3628 14.8224C38.5106 14.5774 37.8358 14.2276 37.3387 13.7731C36.8415 13.3185 36.593 12.7237 36.593 11.9886C36.593 11.3778 36.7581 10.8452 37.0883 10.3906C37.4221 9.93253 37.8696 9.57741 38.4307 9.32528C38.9953 9.0696 39.6256 8.94176 40.3216 8.94176C41.0248 8.94176 41.6498 9.06783 42.1966 9.31996C42.7435 9.56854 43.1768 9.90945 43.4964 10.3427C43.8195 10.7759 43.99 11.2678 44.0077 11.8182H42.7293ZM46.1584 20V11.8182H47.4155V20H46.1584ZM46.7976 10.4545C46.5526 10.4545 46.3413 10.3711 46.1637 10.2042C45.9897 10.0373 45.9027 9.83665 45.9027 9.60227C45.9027 9.3679 45.9897 9.16726 46.1637 9.00035C46.3413 8.83345 46.5526 8.75 46.7976 8.75C47.0426 8.75 47.2521 8.83345 47.4261 9.00035C47.6037 9.16726 47.6925 9.3679 47.6925 9.60227C47.6925 9.83665 47.6037 10.0373 47.4261 10.2042C47.2521 10.3711 47.0426 10.4545 46.7976 10.4545ZM53.0205 23.2386C52.4133 23.2386 51.8912 23.1605 51.4545 23.0043C51.0177 22.8516 50.6537 22.6491 50.3625 22.397C50.0748 22.1484 49.8458 21.8821 49.6753 21.598L50.6768 20.8949C50.7904 21.044 50.9342 21.2145 51.1082 21.4062C51.2822 21.6016 51.5202 21.7702 51.822 21.9123C52.1274 22.0579 52.5269 22.1307 53.0205 22.1307C53.681 22.1307 54.2261 21.9709 54.6558 21.6513C55.0855 21.3317 55.3003 20.831 55.3003 20.1491V18.4872H55.1938C55.1015 18.6364 54.9701 18.821 54.7996 19.0412C54.6327 19.2578 54.3912 19.4513 54.0752 19.6218C53.7627 19.7887 53.3401 19.8722 52.8074 19.8722C52.1469 19.8722 51.5539 19.7159 51.0283 19.4034C50.5063 19.0909 50.0926 18.6364 49.7872 18.0398C49.4854 17.4432 49.3344 16.7187 49.3344 15.8665C49.3344 15.0284 49.4818 14.2987 49.7765 13.6772C50.0713 13.0522 50.4814 12.5692 51.007 12.2283C51.5326 11.8839 52.1398 11.7116 52.8287 11.7116C53.3614 11.7116 53.784 11.8004 54.0965 11.978C54.4126 12.152 54.654 12.3509 54.8209 12.5746C54.9914 12.7947 55.1228 12.9759 55.2151 13.1179H55.343V11.8182H56.5574V20.2344C56.5574 20.9375 56.3976 21.5092 56.078 21.9496C55.762 22.3935 55.3358 22.7184 54.7996 22.9244C54.267 23.1339 53.6739 23.2386 53.0205 23.2386ZM52.9779 18.7429C53.4822 18.7429 53.9083 18.6275 54.2563 18.3967C54.6043 18.1658 54.8689 17.8338 55.05 17.4006C55.2311 16.9673 55.3216 16.4489 55.3216 15.8452C55.3216 15.2557 55.2329 14.7354 55.0553 14.2844C54.8778 13.8335 54.615 13.4801 54.267 13.2244C53.9189 12.9687 53.4893 12.8409 52.9779 12.8409C52.4452 12.8409 52.0013 12.9759 51.6462 13.2457C51.2947 13.5156 51.0301 13.8778 50.8525 14.3324C50.6785 14.7869 50.5915 15.2912 50.5915 15.8452C50.5915 16.4134 50.6803 16.9158 50.8579 17.3526C51.039 17.7859 51.3053 18.1268 51.6569 18.3754C52.012 18.6204 52.4523 18.7429 52.9779 18.7429ZM60.1157 15.0781V20H58.8586V11.8182H60.0731V13.0966H60.1796C60.3714 12.6811 60.6626 12.3473 61.0532 12.0952C61.4438 11.8395 61.9481 11.7116 62.566 11.7116C63.1199 11.7116 63.6047 11.8253 64.0202 12.0526C64.4356 12.2763 64.7588 12.6172 64.9896 13.0753C65.2204 13.5298 65.3358 14.1051 65.3358 14.8011V20H64.0787V14.8864C64.0787 14.2436 63.9118 13.7429 63.578 13.3842C63.2442 13.022 62.7861 12.8409 62.2037 12.8409C61.8025 12.8409 61.4438 12.9279 61.1278 13.1019C60.8153 13.2759 60.5684 13.5298 60.3873 13.8636C60.2062 14.1974 60.1157 14.6023 60.1157 15.0781ZM77.008 16.6548V11.8182H78.2651V20H77.008V18.6151H76.9228C76.731 19.0305 76.4327 19.3839 76.0279 19.6751C75.623 19.9627 75.1117 20.1065 74.4938 20.1065C73.9824 20.1065 73.5279 19.9947 73.1301 19.771C72.7324 19.5437 72.4199 19.2028 72.1926 18.7482C71.9654 18.2901 71.8517 17.7131 71.8517 17.017V11.8182H73.1088V16.9318C73.1088 17.5284 73.2757 18.0043 73.6096 18.3594C73.9469 18.7145 74.3766 18.892 74.8986 18.892C75.2111 18.892 75.5289 18.8121 75.8521 18.6523C76.1788 18.4925 76.4522 18.2475 76.6724 17.9173C76.8961 17.587 77.008 17.1662 77.008 16.6548ZM80.5676 23.0682V11.8182H81.782V13.1179H81.9312C82.0235 12.9759 82.1514 12.7947 82.3147 12.5746C82.4816 12.3509 82.7195 12.152 83.0285 11.978C83.341 11.8004 83.7636 11.7116 84.2963 11.7116C84.9852 11.7116 85.5924 11.8839 86.118 12.2283C86.6436 12.5728 87.0537 13.0611 87.3485 13.6932C87.6432 14.3253 87.7906 15.071 87.7906 15.9304C87.7906 16.7969 87.6432 17.5479 87.3485 18.1836C87.0537 18.8157 86.6453 19.3058 86.1233 19.6538C85.6013 19.9982 84.9994 20.1705 84.3176 20.1705C83.792 20.1705 83.3712 20.0835 83.0551 19.9094C82.7391 19.7319 82.4958 19.5312 82.3254 19.3075C82.1549 19.0803 82.0235 18.892 81.9312 18.7429H81.8247V23.0682H80.5676ZM81.8034 15.9091C81.8034 16.527 81.8939 17.0721 82.075 17.5444C82.2561 18.0131 82.5207 18.3807 82.8687 18.647C83.2167 18.9098 83.6428 19.0412 84.1471 19.0412C84.6727 19.0412 85.1112 18.9027 85.4628 18.6257C85.8179 18.3452 86.0843 17.9687 86.2618 17.4964C86.4429 17.0206 86.5335 16.4915 86.5335 15.9091C86.5335 15.3338 86.4447 14.8153 86.2671 14.3537C86.0931 13.8885 85.8286 13.521 85.4735 13.2511C85.1219 12.9776 84.6798 12.8409 84.1471 12.8409C83.6357 12.8409 83.2061 12.9705 82.858 13.2298C82.51 13.4854 82.2472 13.8441 82.0697 14.3058C81.8921 14.7638 81.8034 15.2983 81.8034 15.9091Z" fill="white" fill-opacity="0.9"/>
<path d="M21.9998 14.9998C22.7909 14.9998 23.5643 14.7652 24.2221 14.3257C24.8798 13.8862 25.3925 13.2615 25.6952 12.5306C25.998 11.7997 26.0772 10.9955 25.9229 10.2196C25.7685 9.44365 25.3876 8.73094 24.8282 8.17154C24.2688 7.61215 23.5561 7.2312 22.7802 7.07686C22.0043 6.92252 21.2 7.00173 20.4691 7.30448C19.7383 7.60722 19.1136 8.11989 18.674 8.77767C18.2345 9.43545 17.9999 10.2088 17.9999 10.9999C18.001 12.0604 18.4228 13.0772 19.1727 13.8271C19.9225 14.577 20.9393 14.9987 21.9998 14.9998ZM21.9998 8.3333C22.5272 8.3333 23.0428 8.48969 23.4813 8.7827C23.9198 9.07571 24.2616 9.49217 24.4634 9.97943C24.6653 10.4667 24.7181 11.0028 24.6152 11.5201C24.5123 12.0374 24.2583 12.5125 23.8854 12.8855C23.5125 13.2584 23.0373 13.5124 22.5201 13.6152C22.0028 13.7181 21.4666 13.6653 20.9794 13.4635C20.4921 13.2617 20.0757 12.9199 19.7826 12.4814C19.4896 12.0429 19.3332 11.5273 19.3332 10.9999C19.3332 10.2927 19.6142 9.61441 20.1143 9.11432C20.6143 8.61424 21.2926 8.3333 21.9998 8.3333Z" fill="white" fill-opacity="0.9"/>
<path d="M21.9998 16.3335C20.4091 16.3353 18.8841 16.968 17.7593 18.0928C16.6345 19.2176 16.0018 20.7426 16 22.3334C16 22.5102 16.0702 22.6797 16.1953 22.8047C16.3203 22.9298 16.4898 23 16.6666 23C16.8435 23 17.013 22.9298 17.138 22.8047C17.2631 22.6797 17.3333 22.5102 17.3333 22.3334C17.3333 21.0957 17.8249 19.9088 18.7001 19.0336C19.5752 18.1585 20.7622 17.6668 21.9998 17.6668C23.2375 17.6668 24.4244 18.1585 25.2996 19.0336C26.1747 19.9088 26.6664 21.0957 26.6664 22.3334C26.6664 22.5102 26.7366 22.6797 26.8616 22.8047C26.9866 22.9298 27.1562 23 27.333 23C27.5098 23 27.6794 22.9298 27.8044 22.8047C27.9294 22.6797 27.9997 22.5102 27.9997 22.3334C27.9979 20.7426 27.3652 19.2176 26.2404 18.0928C25.1156 16.968 23.5905 16.3353 21.9998 16.3335Z" fill="white" fill-opacity="0.9"/>
</svg>
