<svg width="59" height="49" viewBox="0 0 59 49" fill="none" xmlns="http://www.w3.org/2000/svg">
<ellipse cx="29.3032" cy="24.3997" rx="28.9214" ry="24.3294" fill="#00E324"/>
<rect x="20.4619" y="11.1284" width="1.73901" height="26.576" rx="0.869504" fill="white"/>
<rect x="17.2754" y="15.5171" width="1.73901" height="17.7986" rx="0.869504" fill="white"/>
<rect x="14.0859" y="20.1489" width="1.73901" height="8.53358" rx="0.869504" fill="white"/>
<rect x="10.8994" y="20.1489" width="1.73901" height="8.53358" rx="0.869504" fill="white"/>
<rect x="23.6514" y="13.8101" width="1.73901" height="21.212" rx="0.869504" fill="white"/>
<rect x="26.8408" y="17.7109" width="1.73901" height="13.4099" rx="0.869504" fill="white"/>
<rect x="30.0273" y="15.5171" width="1.73901" height="17.7986" rx="0.869504" fill="white"/>
<rect x="33.2168" y="20.1489" width="1.73901" height="8.53358" rx="0.869504" fill="white"/>
<rect x="36.4033" y="15.5171" width="1.73901" height="17.7986" rx="0.869504" fill="white"/>
<rect x="39.5928" y="21.6118" width="1.73901" height="5.60778" rx="0.869504" fill="white"/>
<rect x="42.7822" y="17.7109" width="1.73901" height="13.4099" rx="0.869504" fill="white"/>
<rect x="45.9688" y="20.1489" width="1.73901" height="8.53358" rx="0.869504" fill="white"/>
</svg>
